<?xml version="1.0" encoding="UTF-8" standalone="no"?>
<!DOCTYPE svg PUBLIC "-//W3C//DTD SVG 1.1//EN" "http://www.w3.org/Graphics/SVG/1.1/DTD/svg11.dtd">
<svg width="100%" height="100%" viewBox="0 0 500 500" version="1.1" xmlns="http://www.w3.org/2000/svg" xmlns:xlink="http://www.w3.org/1999/xlink" xml:space="preserve" xmlns:serif="http://www.serif.com/" style="fill-rule:evenodd;clip-rule:evenodd;stroke-linejoin:round;stroke-miterlimit:1.41421;">
    <g transform="matrix(3.16761,0,0,0.885663,-378.305,-19.4327)">
        <g transform="matrix(0.315696,0,0,1.14466,104.864,-50.0964)">
            <path d="M160.622,330.319L160.622,362.795L158.138,362.795L158.138,330.319L151.242,330.319L151.242,328.159L167.554,328.159L167.554,330.319L160.622,330.319Z" style="fill:rgb(87,49,62);fill-rule:nonzero;"/>
        </g>
        <g transform="matrix(0.315696,0,0,1.1291,105.811,-44.4515)">
            <path d="M169.122,351.673C169.122,351.673 170.479,349.326 171.215,348.459C174.406,344.705 175.725,346.197 175.906,346.435C176.088,346.673 175.323,348.071 174.943,348.133C174.796,348.157 173.507,348.713 172.39,349.826C171.188,351.023 170.152,352.799 169.939,353.3C169.608,354.075 169.189,354.871 169.189,355.687L169.189,362.795L167.174,362.795L167.174,351.439C167.174,351.055 167.168,350.641 167.156,350.197C167.144,349.753 167.132,349.321 167.12,348.901C167.108,348.481 167.096,348.097 167.084,347.749C167.072,347.401 167.054,347.029 167.03,346.837L169.11,346.8C169.158,347.256 169.093,347.965 169.117,348.649C169.141,349.333 169.122,350.905 169.122,351.673Z" style="fill:rgb(87,49,62);fill-rule:nonzero;"/>
        </g>
        <g transform="matrix(0.315696,0,0,1.1291,106.127,-44.4515)">
            <path d="M179.938,340.525C179.938,341.029 179.782,341.443 179.47,341.767C179.158,342.091 178.786,342.253 178.354,342.253C177.898,342.253 177.52,342.091 177.22,341.767C176.92,341.443 176.77,341.029 176.77,340.525C176.77,340.045 176.92,339.637 177.22,339.301C177.52,338.965 177.898,338.797 178.354,338.797C178.81,338.797 179.188,338.965 179.488,339.301C179.788,339.637 179.938,340.045 179.938,340.525ZM176.894,362.795L176.894,346.939L179.27,346.939L179.27,362.795L176.894,362.795Z" style="fill:rgb(87,49,62);fill-rule:nonzero;"/>
        </g>
        <g transform="matrix(0.315696,0,0,1.1291,119.429,21.9414)">
            <path d="M145.982,303.993L143.678,303.993L143.678,265.777L146.054,265.777L146.054,290.461C146.054,290.461 147.081,288.646 147.813,287.974C148.545,287.302 149.451,286.966 150.531,286.966C151.443,286.966 152.253,287.2 152.961,287.668C153.171,287.807 154.637,289.002 155.221,290.879C155.758,292.602 155.431,294.976 155.306,295.976C155.07,297.864 154.126,299.404 153.898,299.808C153.418,300.66 152.492,301.649 151.796,302.129C151.1,302.609 150.319,303.143 149.475,303.491C148.186,304.021 146.231,303.998 145.982,303.993ZM146.129,301.985C145.853,301.916 146.16,293.85 146.147,293.451C146.138,293.183 147.533,291.126 148.533,290.073C148.993,289.589 150.171,289.046 151.402,289.459C152.592,289.859 153.038,290.607 153.184,292.343C153.239,293.002 153.255,294.883 153.014,295.754C152.819,296.459 152.138,298.74 150.41,300.211C148.168,302.12 146.436,302.061 146.129,301.985Z" style="fill:rgb(87,49,62);"/>
        </g>
        <g transform="matrix(0.317129,0,0,1.1291,105.921,-44.4515)">
            <path d="M203.822,346.939L203.822,356.459C203.822,357.011 203.852,357.569 203.912,358.133C203.972,358.697 204.104,359.213 204.308,359.681C204.512,360.149 204.794,360.533 205.154,360.833C205.514,361.133 206.006,361.283 206.63,361.283C207.23,361.283 207.764,361.121 208.232,360.797C208.7,360.473 209.096,360.029 209.42,359.465C209.744,358.901 209.996,358.253 210.176,357.521C210.356,356.789 210.446,356.027 210.446,355.235L210.446,346.939L212.822,346.939L212.822,358.295C212.822,358.679 212.828,359.093 212.84,359.537C212.852,359.981 212.864,360.413 212.876,360.833C212.888,361.253 212.9,361.643 212.912,362.003C212.924,362.363 212.942,362.627 212.966,362.795L210.662,362.795C210.703,362.866 210.683,361.787 210.698,361.139C210.7,361.054 209.706,362.191 209.082,362.581C208.168,363.153 207.062,363.371 205.91,363.371C204.95,363.371 204.176,363.167 203.588,362.759C203,362.351 202.55,361.817 202.238,361.157C201.926,360.497 201.716,359.759 201.608,358.943C201.5,358.127 201.446,357.299 201.446,356.459L201.446,346.939L203.822,346.939Z" style="fill:rgb(87,49,62);fill-rule:nonzero;"/>
        </g>
        <g transform="matrix(0.315696,0,0,1.1291,119.429,21.9414)">
            <path d="M194.97,303.963L193.065,303.963L193.018,301.233C193.018,301.233 192.089,302.794 190.871,303.665C189.863,304.385 188.586,304.443 188.124,304.443C187.364,304.443 186.674,304.271 186.114,303.843C184.008,302.235 183.578,300.686 183.368,299.716C183.158,298.746 183.053,297.681 183.053,296.521C183.053,295.946 182.923,294.473 183.168,293.051C183.288,292.356 183.862,290.778 184.784,289.583C185.777,288.296 187.136,287.407 187.675,287.234C189.984,286.493 192.083,287.826 192.083,287.826L191.694,266.684L193.674,266.684L194.064,301.808L194.957,301.909L194.97,303.963ZM191.927,289.393C192.203,289.478 192.049,299.923 191.943,300.358C191.791,300.987 191.1,301.91 190.653,302.246C190.206,302.582 188.982,302.459 188.401,302.459C187.797,302.459 187.277,302.291 186.841,301.955C186.404,301.619 186.041,301.163 185.75,300.585C185.46,300.007 185.247,299.319 185.113,298.521C184.979,297.723 184.912,296.862 184.912,295.938C184.912,295.035 184.979,294.189 185.113,293.402C185.183,292.99 186.086,290.59 187.688,289.698C189.153,288.884 191.262,289.188 191.927,289.393Z" style="fill:rgb(87,49,62);"/>
        </g>
        <g transform="matrix(0.315696,0,0,1.1291,106.127,-44.4515)">
            <path d="M243.171,354.847C243.171,355.831 243.169,356.261 243.337,357.089C243.505,357.917 243.751,358.637 244.075,359.249C244.399,359.861 244.807,360.341 245.299,360.689C245.791,361.037 246.566,361.211 247.238,361.211C248.102,361.211 248.798,360.947 249.326,360.419C249.854,359.891 249.982,359.588 250.27,358.844L252.492,358.808L252.35,359.555C252.175,359.994 251.964,360.404 251.72,360.785C251.362,361.342 250.93,361.838 250.424,362.273C249.572,363.005 248.486,363.371 247.166,363.371C245.174,363.371 243.626,362.531 242.522,360.851C241.617,359.474 241.352,358.524 241.125,356.736C240.991,355.687 240.972,353.723 241.26,352.547C241.548,351.371 242,349.867 242.54,349.027C243.08,348.187 243.74,347.533 244.52,347.065C245.3,346.597 246.17,346.363 247.13,346.363C248.186,346.363 249.08,346.591 249.812,347.047C250.544,347.503 251.853,349.287 252.079,350.338C252.546,352.523 252.297,354.941 252.297,354.941L243.171,354.847ZM250.233,353.391C250.26,353.412 250.384,351.607 249.832,350.515C249.28,349.423 248.234,348.415 247.058,348.415C246.362,348.415 245.48,348.639 245.012,349.059C244.544,349.479 244.047,350.217 243.747,350.829C243.447,351.441 243.314,352.863 243.314,353.391L250.233,353.391Z" style="fill:rgb(87,49,62);fill-rule:nonzero;"/>
        </g>
        <g transform="matrix(0.283829,0,0,1.00356,103.475,1.17584)">
            <path d="M306.566,348.431C306.83,347.231 307.34,346.519 308.096,345.763C308.852,345.007 309.83,344.629 311.03,344.629C311.678,344.629 312.236,344.743 312.704,344.971C313.172,345.199 313.568,345.499 313.892,345.871C314.216,346.243 314.468,346.681 314.648,347.185C314.828,347.689 314.966,347.939 315.062,348.467L315.134,348.467C315.278,347.939 315.482,347.695 315.746,347.203C316.01,346.711 316.34,346.273 316.736,345.889C317.132,345.505 317.588,345.199 318.104,344.971C318.62,344.743 319.202,344.629 319.85,344.629C320.81,344.629 321.578,344.833 322.154,345.241C322.73,345.649 323.18,346.183 323.504,346.843C323.828,347.503 324.084,347.977 324.152,348.809C324.22,349.637 324.218,350.459 324.218,351.275L324.218,362.795L321.902,362.795L321.902,351.553C321.902,351.001 321.872,350.443 321.812,349.879C321.752,349.315 321.626,348.799 321.434,348.331C321.242,347.863 320.96,347.479 320.588,347.179C320.216,346.879 319.718,346.729 319.094,346.729C318.518,346.729 317.596,347.433 317.108,347.928C316.656,348.386 316.037,349.567 315.869,350.299C315.701,351.031 315.548,351.707 315.548,352.499L315.548,362.795L313.01,362.795L313.01,351.553C313.01,351.001 312.98,350.437 312.92,349.861C312.86,349.285 312.74,348.763 312.56,348.295C312.38,347.827 312.104,347.449 311.732,347.161C311.36,346.873 310.874,346.729 310.274,346.729C309.674,346.729 309.146,346.891 308.69,347.215C308.234,347.539 307.844,347.983 307.52,348.547C307.196,349.111 306.95,349.759 306.782,350.491C306.614,351.223 306.53,351.707 306.53,352.499L306.53,362.795L304.092,362.795L304.092,349.439C304.092,349.055 304.086,348.641 304.074,348.197C304.062,347.753 304.05,347.321 304.038,346.901C304.026,346.481 304.014,346.097 304.002,345.749C303.99,345.401 304.07,345.006 304.046,344.814L306.35,344.814C306.398,345.27 306.434,345.947 306.458,346.595C306.482,347.243 306.494,347.855 306.494,348.431L306.566,348.431Z" style="fill:rgb(87,49,62);fill-rule:nonzero;"/>
        </g>
        <g transform="matrix(0.31897,0,0,1.018,104.868,-4.09254)">
            <path d="M297.489,362.795C297.465,362.603 297.447,362.363 297.435,362.075C297.423,361.787 297.411,361.481 297.399,361.157C297.387,360.833 297.381,360.521 297.381,360.221C297.381,359.921 296.394,361.643 295.692,362.279C294.967,362.935 293.648,363.263 292.49,363.263C291.986,363.263 291.482,363.167 290.978,362.975C290.474,362.783 290.018,362.471 289.61,362.039C289.202,361.607 288.866,361.061 288.602,360.401C288.338,359.741 288.206,358.943 288.206,358.007C288.206,356.711 288.434,355.667 288.89,354.875C289.346,354.083 289.922,353.459 290.618,353.003C291.314,352.547 292.076,352.241 292.904,352.085C293.732,351.929 294.518,351.851 295.262,351.851L296.666,351.851L296.666,350.915C296.666,349.355 296.378,348.215 295.802,347.495C295.226,346.775 294.446,346.415 293.462,346.415C292.79,346.415 292.073,346.939 291.716,347.59C291.371,348.22 291.312,350.092 290.678,350.249C289.084,350.645 289.031,349.406 289.095,348.869C289.199,347.996 290.126,345.443 291.014,345.011C291.902,344.579 292.79,344.363 293.678,344.363C295.55,344.363 296.882,344.975 297.674,346.199C298.466,347.423 298.862,349.211 298.862,351.563L298.862,358.979C298.862,359.219 298.868,359.519 298.88,359.879C298.892,360.239 298.904,360.605 298.916,360.977C298.928,361.349 298.946,361.697 298.97,362.021C298.994,362.345 299.018,362.603 299.042,362.795L297.489,362.795ZM296.702,354.557L295.262,354.557C294.686,354.557 294.11,354.611 293.534,354.719C292.958,354.827 292.448,355.031 292.004,355.331C291.56,355.631 291.194,356.045 290.906,356.573C290.618,357.101 290.474,357.277 290.474,358.117C290.474,359.365 290.75,359.939 291.302,360.491C291.854,361.043 292.454,361.319 293.102,361.319C293.774,361.319 294.344,361.115 294.812,360.707C295.28,360.299 295.652,359.783 295.928,359.159C296.204,358.535 296.402,357.851 296.522,357.107C296.642,356.363 296.702,354.557 296.702,354.557Z" style="fill:rgb(87,49,62);fill-rule:nonzero;"/>
        </g>
        <g transform="matrix(0.283829,0,0,1.00356,115.515,1.09308)">
            <path d="M306.566,348.431C306.83,347.231 307.34,346.519 308.096,345.763C308.852,345.007 309.83,344.629 311.03,344.629C311.678,344.629 312.236,344.743 312.704,344.971C313.172,345.199 313.568,345.499 313.892,345.871C314.216,346.243 314.468,346.681 314.648,347.185C314.828,347.689 314.966,347.939 315.062,348.467L315.134,348.467C315.278,347.939 315.482,347.695 315.746,347.203C316.01,346.711 316.34,346.273 316.736,345.889C317.132,345.505 317.588,345.199 318.104,344.971C318.62,344.743 319.202,344.629 319.85,344.629C320.81,344.629 321.578,344.833 322.154,345.241C322.73,345.649 323.18,346.183 323.504,346.843C323.828,347.503 324.084,347.977 324.152,348.809C324.22,349.637 324.218,350.459 324.218,351.275L324.218,362.795L321.902,362.795L321.902,351.553C321.902,351.001 321.872,350.443 321.812,349.879C321.752,349.315 321.626,348.799 321.434,348.331C321.242,347.863 320.96,347.479 320.588,347.179C320.216,346.879 319.718,346.729 319.094,346.729C318.518,346.729 317.596,347.433 317.108,347.928C316.656,348.386 316.037,349.567 315.869,350.299C315.701,351.031 315.548,351.707 315.548,352.499L315.548,362.795L313.01,362.795L313.01,351.553C313.01,351.001 312.98,350.437 312.92,349.861C312.86,349.285 312.74,348.763 312.56,348.295C312.38,347.827 312.104,347.449 311.732,347.161C311.36,346.873 310.874,346.729 310.274,346.729C309.674,346.729 309.146,346.891 308.69,347.215C308.234,347.539 307.844,347.983 307.52,348.547C307.196,349.111 306.95,349.759 306.782,350.491C306.614,351.223 306.53,351.707 306.53,352.499L306.53,362.795L304.092,362.795L304.092,349.439C304.092,349.055 304.086,348.641 304.074,348.197C304.062,347.753 304.05,347.321 304.038,346.901C304.026,346.481 304.014,346.097 304.002,345.749C303.99,345.401 304.07,345.006 304.046,344.814L306.35,344.814C306.398,345.27 306.434,345.947 306.458,346.595C306.482,347.243 306.494,347.855 306.494,348.431L306.566,348.431Z" style="fill:rgb(87,49,62);fill-rule:nonzero;"/>
        </g>
        <g transform="matrix(0.31897,0,0,1.018,117.105,-4.09254)">
            <path d="M297.489,362.795C297.465,362.603 297.447,362.363 297.435,362.075C297.423,361.787 297.411,361.481 297.399,361.157C297.387,360.833 297.381,360.521 297.381,360.221C297.381,359.921 296.394,361.643 295.692,362.279C294.967,362.935 293.648,363.263 292.49,363.263C291.986,363.263 291.482,363.167 290.978,362.975C290.474,362.783 290.018,362.471 289.61,362.039C289.202,361.607 288.866,361.061 288.602,360.401C288.338,359.741 288.206,358.943 288.206,358.007C288.206,356.711 288.434,355.667 288.89,354.875C289.346,354.083 289.922,353.459 290.618,353.003C291.314,352.547 292.076,352.241 292.904,352.085C293.732,351.929 294.518,351.851 295.262,351.851L296.666,351.851L296.666,350.915C296.666,349.355 296.378,348.215 295.802,347.495C295.226,346.775 294.446,346.415 293.462,346.415C292.79,346.415 292.073,346.939 291.716,347.59C291.371,348.22 291.312,350.092 290.678,350.249C289.084,350.645 289.031,349.406 289.095,348.869C289.199,347.996 290.126,345.443 291.014,345.011C291.902,344.579 292.79,344.363 293.678,344.363C295.55,344.363 296.882,344.975 297.674,346.199C298.466,347.423 298.862,349.211 298.862,351.563L298.862,358.979C298.862,359.219 298.868,359.519 298.88,359.879C298.892,360.239 298.904,360.605 298.916,360.977C298.928,361.349 298.946,361.697 298.97,362.021C298.994,362.345 299.018,362.603 299.042,362.795L297.489,362.795ZM296.702,354.557L295.262,354.557C294.686,354.557 294.11,354.611 293.534,354.719C292.958,354.827 292.448,355.031 292.004,355.331C291.56,355.631 291.194,356.045 290.906,356.573C290.618,357.101 290.474,357.277 290.474,358.117C290.474,359.365 290.75,359.939 291.302,360.491C291.854,361.043 292.454,361.319 293.102,361.319C293.774,361.319 294.344,361.115 294.812,360.707C295.28,360.299 295.652,359.783 295.928,359.159C296.204,358.535 296.402,357.851 296.522,357.107C296.642,356.363 296.702,354.557 296.702,354.557Z" style="fill:rgb(87,49,62);fill-rule:nonzero;"/>
        </g>
        <g transform="matrix(0.315695,0.00244172,-0.000682704,1.12909,105.801,-43.7573)">
            <path d="M334.79,342.311L332.774,342.311L336.014,337.127L338.606,337.127L334.79,342.311Z" style="fill:rgb(87,49,62);fill-rule:nonzero;"/>
        </g>
        <g transform="matrix(0.315696,0,0,1.01222,105.496,-1.98166)">
            <path d="M351.252,350.214C349.975,350.262 350.445,349.113 349.965,347.482C349.787,346.877 348.77,346.271 348.074,346.271C347.306,346.271 346.676,346.553 346.184,347.117C345.692,347.681 345.446,348.419 345.446,349.331C345.446,350.291 345.686,350.987 346.166,351.419C346.646,351.851 347.366,352.247 348.326,352.607C348.806,352.799 349.286,353.033 349.766,353.309C350.246,353.585 350.672,353.927 351.044,354.335C351.416,354.743 351.722,355.229 351.962,355.793C352.202,356.357 352.322,357.035 352.322,357.827C352.322,359.579 351.848,360.941 350.9,361.913C349.952,362.885 348.722,363.371 347.21,363.371C346.202,363.371 345.278,363.137 344.438,362.669C343.598,362.201 342.591,359.794 342.591,358.928C342.59,357.828 343.321,356.776 343.741,357.009C344.504,357.433 344.074,361.334 347.246,361.355C348.086,361.36 348.764,361.049 349.28,360.437C349.796,359.825 350.054,359.015 350.054,358.007C350.054,357.431 349.958,356.945 349.766,356.549C349.574,356.153 349.322,355.823 349.01,355.559C348.698,355.295 348.344,355.067 347.948,354.875C347.552,354.683 347.138,354.503 346.706,354.335C346.25,354.167 345.812,353.963 345.392,353.723C344.972,353.483 344.594,353.171 344.258,352.787C343.922,352.403 343.652,351.941 343.448,351.401C343.244,350.861 343.142,350.207 343.142,349.439C343.142,348.695 343.268,348.011 343.52,347.387C343.772,346.763 344.126,346.229 344.582,345.785C345.038,345.341 345.56,344.993 346.148,344.741C346.736,344.489 347.378,344.363 348.074,344.363C349.082,344.363 349.543,344.409 350.275,344.805C351.007,345.201 351.785,346.077 351.9,346.956C352.014,347.835 352.477,350.168 351.252,350.214Z" style="fill:rgb(87,49,62);fill-rule:nonzero;"/>
        </g>
    </g>
</svg>
