<?xml version="1.0" encoding="UTF-8" standalone="no"?>
<!DOCTYPE svg PUBLIC "-//W3C//DTD SVG 1.1//EN" "http://www.w3.org/Graphics/SVG/1.1/DTD/svg11.dtd">
<svg width="100%" height="100%" viewBox="0 0 500 500" version="1.1" xmlns="http://www.w3.org/2000/svg" xmlns:xlink="http://www.w3.org/1999/xlink" xml:space="preserve" xmlns:serif="http://www.serif.com/" style="fill-rule:evenodd;clip-rule:evenodd;stroke-linejoin:round;stroke-miterlimit:1.41421;">
    <g transform="matrix(1.60917,0,0,1.60917,-225.44,-260.463)">
        <circle cx="295.457" cy="317.222" r="153.717" style="fill:white;"/>
    </g>
    <g transform="matrix(1.72828,0,0,1.72828,-232.326,-200.019)">
        <path d="M321.54,267.195C321.54,267.195 296.1,229.254 252.916,219.303C192.981,205.493 161.222,234.444 155.84,208.961C150.071,181.643 209.422,186.962 221.725,189.293C267.137,197.898 301.148,231.276 321.54,267.195Z" style="fill:rgb(132,53,72);"/>
        <g transform="matrix(0.743447,0.502314,-0.477522,0.706754,221.769,-61.3291)">
            <path d="M321.54,267.195C321.54,267.195 297.023,228.597 253.839,218.647C193.905,204.836 161.038,236.341 155.84,208.961C150.63,181.519 210.473,185.416 222.776,187.747C268.188,196.352 301.148,231.276 321.54,267.195Z" style="fill:rgb(145,89,66);"/>
        </g>
        <g transform="matrix(0.261014,0.772854,-0.727952,0.245849,438.289,13.2388)">
            <path d="M321.54,267.195C321.54,267.195 297.023,228.597 253.839,218.647C193.905,204.836 161.038,236.341 155.84,208.961C150.63,181.519 210.473,185.416 222.776,187.747C268.188,196.352 301.148,231.276 321.54,267.195Z" style="fill:rgb(178,107,77);"/>
        </g>
        <g transform="matrix(-0.264418,0.67674,-0.64986,-0.253915,559.557,197.921)">
            <path d="M321.54,267.195C321.54,267.195 297.023,228.597 253.839,218.647C193.905,204.836 161.038,236.341 155.84,208.961C150.63,181.519 210.473,185.416 222.776,187.747C268.188,196.352 301.148,231.276 321.54,267.195Z" style="fill:rgb(178,98,101);"/>
        </g>
        <g transform="matrix(-0.569788,0.298193,-0.27473,-0.524955,533.922,391.991)">
            <path d="M321.54,267.195C321.54,267.195 297.023,228.597 253.839,218.647C193.905,204.836 161.038,236.341 155.84,208.961C150.63,181.519 210.473,185.416 222.776,187.747C268.188,196.352 301.148,231.276 321.54,267.195Z" style="fill:rgb(234,186,186);"/>
        </g>
    </g>
</svg>
